STARTFONT 2.1
FONT -sgi-terminal-bold-r-normal--12-120-75-75-c-70-iso8859-1
SIZE 12 75 75
FONTBOUNDINGBOX 8 14 0 -3

STARTPROPERTIES 25
_DEC_DEVICE_FONTNAMES "FM=Fixed-Bold"
FONTNAME_REGISTRY ""
FAMILY_NAME "Terminal"
FOUNDRY "Sgi"
WEIGHT_NAME "Bold"
SLANT "R"
SETWIDTH_NAME "Normal"
ADD_STYLE_NAME ""
PIXEL_SIZE 12
POINT_SIZE 120
RESOLUTION_X 75
RESOLUTION_Y 75
SPACING "C"
AVERAGE_WIDTH 70
CHARSET_REGISTRY "ISO8859"
CHARSET_ENCODING "1"
CHARSET_COLLECTIONS "ASCII ISO8859-1"
COPYRIGHT "Copyright (c) 1985,1987 Adobe Systems, Inc., Portions Copyright 1988 Digital Equipment Corp."
CAP_HEIGHT 8
X_HEIGHT 6
WEIGHT 10
QUAD_WIDTH 8
DEFAULT_CHAR 0
FONT_DESCENT 3
FONT_ASCENT 11
ENDPROPERTIES

CHARS 190

STARTCHAR space
ENCODING 32
SWIDTH 600 0
DWIDTH 8 0
BBX 8 14 0 -3
BITMAP
00
00
00
00
00
00
00
00
00
00
00
00
00
00
ENDCHAR

STARTCHAR exclam
ENCODING 33
SWIDTH 600 0
DWIDTH 8 0
BBX 8 14 0 -3
BITMAP
00
00
18
18
18
18
18
18
00
18
18
00
00
00
ENDCHAR

STARTCHAR quotedbl
ENCODING 34
SWIDTH 600 0
DWIDTH 8 0
BBX 8 14 0 -3
BITMAP
00
00
00
28
28
28
00
00
00
00
00
00
00
00
ENDCHAR

STARTCHAR numbersign
ENCODING 35
SWIDTH 600 0
DWIDTH 8 0
BBX 8 14 0 -3
BITMAP
00
00
00
28
28
7C
28
28
7C
28
28
00
00
00
ENDCHAR

STARTCHAR dollar
ENCODING 36
SWIDTH 600 0
DWIDTH 8 0
BBX 8 14 0 -3
BITMAP
00
18
18
3E
66
70
3C
0E
46
66
7C
18
18
00
ENDCHAR

STARTCHAR percent
ENCODING 37
SWIDTH 600 0
DWIDTH 8 0
BBX 8 14 0 -3
BITMAP
00
00
00
60
D0
64
18
30
4C
1A
0C
00
00
00
ENDCHAR

STARTCHAR ampersand
ENCODING 38
SWIDTH 600 0
DWIDTH 8 0
BBX 8 14 0 -3
BITMAP
00
00
00
38
6C
60
32
7E
CC
CE
7A
00
00
00
ENDCHAR

STARTCHAR quoteright
ENCODING 39
SWIDTH 600 0
DWIDTH 8 0
BBX 8 14 0 -3
BITMAP
00
00
00
10
30
20
00
00
00
00
00
00
00
00
ENDCHAR

STARTCHAR parenleft
ENCODING 40
SWIDTH 600 0
DWIDTH 8 0
BBX 8 14 0 -3
BITMAP
00
00
04
18
18
30
30
30
30
30
18
18
04
00
ENDCHAR

STARTCHAR parenright
ENCODING 41
SWIDTH 600 0
DWIDTH 8 0
BBX 8 14 0 -3
BITMAP
00
00
20
18
18
0C
0C
0C
0C
0C
18
18
20
00
ENDCHAR

STARTCHAR asterisk
ENCODING 42
SWIDTH 600 0
DWIDTH 8 0
BBX 8 14 0 -3
BITMAP
00
00
08
08
3E
1C
36
00
00
00
00
00
00
00
ENDCHAR

STARTCHAR plus
ENCODING 43
SWIDTH 600 0
DWIDTH 8 0
BBX 8 14 0 -3
BITMAP
00
00
00
00
00
18
18
7E
18
18
00
00
00
00
ENDCHAR

STARTCHAR comma
ENCODING 44
SWIDTH 600 0
DWIDTH 8 0
BBX 8 14 0 -3
BITMAP
00
00
00
00
00
00
00
00
00
18
18
30
00
00
ENDCHAR

STARTCHAR minus
ENCODING 45
SWIDTH 600 0
DWIDTH 8 0
BBX 8 14 0 -3
BITMAP
00
00
00
00
00
00
00
7E
00
00
00
00
00
00
ENDCHAR

STARTCHAR period
ENCODING 46
SWIDTH 600 0
DWIDTH 8 0
BBX 8 14 0 -3
BITMAP
00
00
00
00
00
00
00
00
00
18
18
00
00
00
ENDCHAR

STARTCHAR slash
ENCODING 47
SWIDTH 600 0
DWIDTH 8 0
BBX 8 14 0 -3
BITMAP
00
00
00
04
0C
0C
18
18
30
30
60
60
40
00
ENDCHAR

STARTCHAR zero
ENCODING 48
SWIDTH 600 0
DWIDTH 8 0
BBX 8 14 0 -3
BITMAP
00
00
3C
66
66
66
66
66
66
66
3C
00
00
00
ENDCHAR

STARTCHAR one
ENCODING 49
SWIDTH 600 0
DWIDTH 8 0
BBX 8 14 0 -3
BITMAP
00
00
18
78
18
18
18
18
18
18
7E
00
00
00
ENDCHAR

STARTCHAR two
ENCODING 50
SWIDTH 600 0
DWIDTH 8 0
BBX 8 14 0 -3
BITMAP
00
00
3C
66
66
66
0C
18
30
66
7E
00
00
00
ENDCHAR

STARTCHAR three
ENCODING 51
SWIDTH 600 0
DWIDTH 8 0
BBX 8 14 0 -3
BITMAP
00
00
3C
66
06
06
1C
06
06
66
3C
00
00
00
ENDCHAR

STARTCHAR four
ENCODING 52
SWIDTH 600 0
DWIDTH 8 0
BBX 8 14 0 -3
BITMAP
00
00
04
0C
1C
2C
2C
4C
7E
0C
1E
00
00
00
ENDCHAR

STARTCHAR five
ENCODING 53
SWIDTH 600 0
DWIDTH 8 0
BBX 8 14 0 -3
BITMAP
00
00
7C
60
60
60
7C
06
06
66
7C
00
00
00
ENDCHAR

STARTCHAR six
ENCODING 54
SWIDTH 600 0
DWIDTH 8 0
BBX 8 14 0 -3
BITMAP
00
00
1E
30
60
60
7C
66
66
66
3C
00
00
00
ENDCHAR

STARTCHAR seven
ENCODING 55
SWIDTH 600 0
DWIDTH 8 0
BBX 8 14 0 -3
BITMAP
00
00
7E
66
0C
0C
0C
18
18
30
30
00
00
00
ENDCHAR

STARTCHAR eight
ENCODING 56
SWIDTH 600 0
DWIDTH 8 0
BBX 8 14 0 -3
BITMAP
00
00
3C
66
66
66
3C
66
66
66
3C
00
00
00
ENDCHAR

STARTCHAR nine
ENCODING 57
SWIDTH 600 0
DWIDTH 8 0
BBX 8 14 0 -3
BITMAP
00
00
3C
66
66
66
3E
06
06
0C
78
00
00
00
ENDCHAR

STARTCHAR colon
ENCODING 58
SWIDTH 600 0
DWIDTH 8 0
BBX 8 14 0 -3
BITMAP
00
00
00
00
00
18
18
00
00
18
18
00
00
00
ENDCHAR

STARTCHAR semicolon
ENCODING 59
SWIDTH 600 0
DWIDTH 8 0
BBX 8 14 0 -3
BITMAP
00
00
00
00
00
18
18
00
00
18
18
30
00
00
ENDCHAR

STARTCHAR less
ENCODING 60
SWIDTH 600 0
DWIDTH 8 0
BBX 8 14 0 -3
BITMAP
00
00
00
00
0C
18
30
60
30
18
0C
00
00
00
ENDCHAR

STARTCHAR equal
ENCODING 61
SWIDTH 600 0
DWIDTH 8 0
BBX 8 14 0 -3
BITMAP
00
00
00
00
00
00
7E
00
7E
00
00
00
00
00
ENDCHAR

STARTCHAR greater
ENCODING 62
SWIDTH 600 0
DWIDTH 8 0
BBX 8 14 0 -3
BITMAP
00
00
00
00
30
18
0C
06
0C
18
30
00
00
00
ENDCHAR

STARTCHAR question
ENCODING 63
SWIDTH 600 0
DWIDTH 8 0
BBX 8 14 0 -3
BITMAP
00
00
00
3C
66
66
0C
18
00
18
18
00
00
00
ENDCHAR

STARTCHAR at
ENCODING 64
SWIDTH 600 0
DWIDTH 8 0
BBX 8 14 0 -3
BITMAP
00
00
00
38
6C
4C
54
54
4E
60
38
00
00
00
ENDCHAR

STARTCHAR A
ENCODING 65
SWIDTH 600 0
DWIDTH 8 0
BBX 8 14 0 -3
BITMAP
00
00
00
38
18
34
34
3C
66
66
E7
00
00
00
ENDCHAR

STARTCHAR B
ENCODING 66
SWIDTH 600 0
DWIDTH 8 0
BBX 8 14 0 -3
BITMAP
00
00
00
FC
66
66
7C
66
66
66
FC
00
00
00
ENDCHAR

STARTCHAR C
ENCODING 67
SWIDTH 600 0
DWIDTH 8 0
BBX 8 14 0 -3
BITMAP
00
00
00
3C
66
66
60
60
66
66
3C
00
00
00
ENDCHAR

STARTCHAR D
ENCODING 68
SWIDTH 600 0
DWIDTH 8 0
BBX 8 14 0 -3
BITMAP
00
00
00
FC
66
66
66
66
66
66
FC
00
00
00
ENDCHAR

STARTCHAR E
ENCODING 69
SWIDTH 600 0
DWIDTH 8 0
BBX 8 14 0 -3
BITMAP
00
00
00
7E
32
30
3C
34
30
32
7E
00
00
00
ENDCHAR

STARTCHAR F
ENCODING 70
SWIDTH 600 0
DWIDTH 8 0
BBX 8 14 0 -3
BITMAP
00
00
00
7E
32
30
3C
34
30
30
78
00
00
00
ENDCHAR

STARTCHAR G
ENCODING 71
SWIDTH 600 0
DWIDTH 8 0
BBX 8 14 0 -3
BITMAP
00
00
00
3C
66
66
60
6E
66
66
3C
00
00
00
ENDCHAR

STARTCHAR H
ENCODING 72
SWIDTH 600 0
DWIDTH 8 0
BBX 8 14 0 -3
BITMAP
00
00
00
F7
66
66
7E
66
66
66
F7
00
00
00
ENDCHAR

STARTCHAR I
ENCODING 73
SWIDTH 600 0
DWIDTH 8 0
BBX 8 14 0 -3
BITMAP
00
00
00
7E
18
18
18
18
18
18
7E
00
00
00
ENDCHAR

STARTCHAR J
ENCODING 74
SWIDTH 600 0
DWIDTH 8 0
BBX 8 14 0 -3
BITMAP
00
00
00
3E
0C
0C
0C
0C
6C
6C
38
00
00
00
ENDCHAR

STARTCHAR K
ENCODING 75
SWIDTH 600 0
DWIDTH 8 0
BBX 8 14 0 -3
BITMAP
00
00
00
F6
6C
68
70
78
6C
66
F7
00
00
00
ENDCHAR

STARTCHAR L
ENCODING 76
SWIDTH 600 0
DWIDTH 8 0
BBX 8 14 0 -3
BITMAP
00
00
00
F0
60
60
60
60
60
64
FC
00
00
00
ENDCHAR

STARTCHAR M
ENCODING 77
SWIDTH 600 0
DWIDTH 8 0
BBX 8 14 0 -3
BITMAP
00
00
00
E3
76
76
7A
6A
6A
62
E3
00
00
00
ENDCHAR

STARTCHAR N
ENCODING 78
SWIDTH 600 0
DWIDTH 8 0
BBX 8 14 0 -3
BITMAP
00
00
00
E7
62
72
7A
5E
4E
46
E6
00
00
00
ENDCHAR

STARTCHAR O
ENCODING 79
SWIDTH 600 0
DWIDTH 8 0
BBX 8 14 0 -3
BITMAP
00
00
00
3C
66
66
66
66
66
66
3C
00
00
00
ENDCHAR

STARTCHAR P
ENCODING 80
SWIDTH 600 0
DWIDTH 8 0
BBX 8 14 0 -3
BITMAP
00
00
00
FC
66
66
66
7C
60
60
F8
00
00
00
ENDCHAR

STARTCHAR Q
ENCODING 81
SWIDTH 600 0
DWIDTH 8 0
BBX 8 14 0 -3
BITMAP
00
00
00
3C
66
66
66
66
66
66
3C
1A
36
00
ENDCHAR

STARTCHAR R
ENCODING 82
SWIDTH 600 0
DWIDTH 8 0
BBX 8 14 0 -3
BITMAP
00
00
00
FC
66
66
7C
6C
66
66
F7
00
00
00
ENDCHAR

STARTCHAR S
ENCODING 83
SWIDTH 600 0
DWIDTH 8 0
BBX 8 14 0 -3
BITMAP
00
00
00
3E
66
60
78
1E
06
66
7C
00
00
00
ENDCHAR

STARTCHAR T
ENCODING 84
SWIDTH 600 0
DWIDTH 8 0
BBX 8 14 0 -3
BITMAP
00
00
00
7E
5A
18
18
18
18
18
3C
00
00
00
ENDCHAR

STARTCHAR U
ENCODING 85
SWIDTH 600 0
DWIDTH 8 0
BBX 8 14 0 -3
BITMAP
00
00
00
F7
66
66
66
66
66
66
3C
00
00
00
ENDCHAR

STARTCHAR V
ENCODING 86
SWIDTH 600 0
DWIDTH 8 0
BBX 8 14 0 -3
BITMAP
00
00
00
F7
66
76
34
38
38
18
10
00
00
00
ENDCHAR

STARTCHAR W
ENCODING 87
SWIDTH 600 0
DWIDTH 8 0
BBX 8 14 0 -3
BITMAP
00
00
00
F7
62
6A
6A
6A
7E
3C
34
00
00
00
ENDCHAR

STARTCHAR X
ENCODING 88
SWIDTH 600 0
DWIDTH 8 0
BBX 8 14 0 -3
BITMAP
00
00
00
EF
66
34
18
38
34
66
EF
00
00
00
ENDCHAR

STARTCHAR Y
ENCODING 89
SWIDTH 600 0
DWIDTH 8 0
BBX 8 14 0 -3
BITMAP
00
00
00
E7
66
34
38
18
18
18
3C
00
00
00
ENDCHAR

STARTCHAR Z
ENCODING 90
SWIDTH 600 0
DWIDTH 8 0
BBX 8 14 0 -3
BITMAP
00
00
00
7E
66
4E
1C
38
72
66
7E
00
00
00
ENDCHAR

STARTCHAR bracketleft
ENCODING 91
SWIDTH 600 0
DWIDTH 8 0
BBX 8 14 0 -3
BITMAP
00
00
38
30
30
30
30
30
30
30
30
30
38
00
ENDCHAR

STARTCHAR backslash
ENCODING 92
SWIDTH 600 0
DWIDTH 8 0
BBX 8 14 0 -3
BITMAP
00
00
00
20
30
30
18
18
0C
0C
06
06
02
00
ENDCHAR

STARTCHAR bracketright
ENCODING 93
SWIDTH 600 0
DWIDTH 8 0
BBX 8 14 0 -3
BITMAP
00
00
38
18
18
18
18
18
18
18
18
18
38
00
ENDCHAR

STARTCHAR asciicircum
ENCODING 94
SWIDTH 600 0
DWIDTH 8 0
BBX 8 14 0 -3
BITMAP
00
00
00
18
3C
66
00
00
00
00
00
00
00
00
ENDCHAR

STARTCHAR underscore
ENCODING 95
SWIDTH 600 0
DWIDTH 8 0
BBX 8 14 0 -3
BITMAP
00
00
00
00
00
00
00
00
00
00
00
00
FE
00
ENDCHAR

STARTCHAR quoteleft
ENCODING 96
SWIDTH 600 0
DWIDTH 8 0
BBX 8 14 0 -3
BITMAP
00
00
00
20
30
10
00
00
00
00
00
00
00
00
ENDCHAR

STARTCHAR a
ENCODING 97
SWIDTH 600 0
DWIDTH 8 0
BBX 8 14 0 -3
BITMAP
00
00
00
00
00
3C
06
3E
66
66
3F
00
00
00
ENDCHAR

STARTCHAR b
ENCODING 98
SWIDTH 600 0
DWIDTH 8 0
BBX 8 14 0 -3
BITMAP
00
00
E0
60
60
7C
66
66
66
66
FC
00
00
00
ENDCHAR

STARTCHAR c
ENCODING 99
SWIDTH 600 0
DWIDTH 8 0
BBX 8 14 0 -3
BITMAP
00
00
00
00
00
3E
66
60
60
66
3C
00
00
00
ENDCHAR

STARTCHAR d
ENCODING 100
SWIDTH 600 0
DWIDTH 8 0
BBX 8 14 0 -3
BITMAP
00
00
0E
06
06
3E
66
66
66
66
3F
00
00
00
ENDCHAR

STARTCHAR e
ENCODING 101
SWIDTH 600 0
DWIDTH 8 0
BBX 8 14 0 -3
BITMAP
00
00
00
00
00
3C
66
7E
60
66
3C
00
00
00
ENDCHAR

STARTCHAR f
ENCODING 102
SWIDTH 600 0
DWIDTH 8 0
BBX 8 14 0 -3
BITMAP
00
00
0F
18
18
7E
18
18
18
18
7E
00
00
00
ENDCHAR

STARTCHAR g
ENCODING 103
SWIDTH 600 0
DWIDTH 8 0
BBX 8 14 0 -3
BITMAP
00
00
00
00
00
3B
66
66
66
66
3E
06
06
3C
ENDCHAR

STARTCHAR h
ENCODING 104
SWIDTH 600 0
DWIDTH 8 0
BBX 8 14 0 -3
BITMAP
00
00
E0
60
60
6C
76
66
66
66
EE
00
00
00
ENDCHAR

STARTCHAR i
ENCODING 105
SWIDTH 600 0
DWIDTH 8 0
BBX 8 14 0 -3
BITMAP
00
00
18
00
00
78
18
18
18
18
7E
00
00
00
ENDCHAR

STARTCHAR j
ENCODING 106
SWIDTH 600 0
DWIDTH 8 0
BBX 8 14 0 -3
BITMAP
00
00
18
00
00
78
18
18
18
18
18
18
18
70
ENDCHAR

STARTCHAR k
ENCODING 107
SWIDTH 600 0
DWIDTH 8 0
BBX 8 14 0 -3
BITMAP
00
00
E0
60
60
66
6C
78
78
6C
E7
00
00
00
ENDCHAR

STARTCHAR l
ENCODING 108
SWIDTH 600 0
DWIDTH 8 0
BBX 8 14 0 -3
BITMAP
00
00
78
18
18
18
18
18
18
18
7E
00
00
00
ENDCHAR

STARTCHAR m
ENCODING 109
SWIDTH 600 0
DWIDTH 8 0
BBX 8 14 0 -3
BITMAP
00
00
00
00
00
D4
7E
6A
6A
6A
EA
00
00
00
ENDCHAR

STARTCHAR n
ENCODING 110
SWIDTH 600 0
DWIDTH 8 0
BBX 8 14 0 -3
BITMAP
00
00
00
00
00
DC
76
66
66
66
F6
00
00
00
ENDCHAR

STARTCHAR o
ENCODING 111
SWIDTH 600 0
DWIDTH 8 0
BBX 8 14 0 -3
BITMAP
00
00
00
00
00
3C
66
66
66
66
3C
00
00
00
ENDCHAR

STARTCHAR p
ENCODING 112
SWIDTH 600 0
DWIDTH 8 0
BBX 8 14 0 -3
BITMAP
00
00
00
00
00
DC
66
66
66
66
7C
60
60
F0
ENDCHAR

STARTCHAR q
ENCODING 113
SWIDTH 600 0
DWIDTH 8 0
BBX 8 14 0 -3
BITMAP
00
00
00
00
00
3B
66
66
66
66
3E
06
06
0F
ENDCHAR

STARTCHAR r
ENCODING 114
SWIDTH 600 0
DWIDTH 8 0
BBX 8 14 0 -3
BITMAP
00
00
00
00
00
6E
3A
30
30
30
7C
00
00
00
ENDCHAR

STARTCHAR s
ENCODING 115
SWIDTH 600 0
DWIDTH 8 0
BBX 8 14 0 -3
BITMAP
00
00
00
00
00
3E
72
3C
0E
66
3C
00
00
00
ENDCHAR

STARTCHAR t
ENCODING 116
SWIDTH 600 0
DWIDTH 8 0
BBX 8 14 0 -3
BITMAP
00
00
00
30
30
7E
30
30
30
32
1C
00
00
00
ENDCHAR

STARTCHAR u
ENCODING 117
SWIDTH 600 0
DWIDTH 8 0
BBX 8 14 0 -3
BITMAP
00
00
00
00
00
EE
66
66
66
66
3B
00
00
00
ENDCHAR

STARTCHAR v
ENCODING 118
SWIDTH 600 0
DWIDTH 8 0
BBX 8 14 0 -3
BITMAP
00
00
00
00
00
F7
66
34
3C
18
18
00
00
00
ENDCHAR

STARTCHAR w
ENCODING 119
SWIDTH 600 0
DWIDTH 8 0
BBX 8 14 0 -3
BITMAP
00
00
00
00
00
F7
62
6A
7A
3C
34
00
00
00
ENDCHAR

STARTCHAR x
ENCODING 120
SWIDTH 600 0
DWIDTH 8 0
BBX 8 14 0 -3
BITMAP
00
00
00
00
00
76
3C
18
3C
76
66
00
00
00
ENDCHAR

STARTCHAR y
ENCODING 121
SWIDTH 600 0
DWIDTH 8 0
BBX 8 14 0 -3
BITMAP
00
00
00
00
00
F7
66
64
3C
38
18
30
30
78
ENDCHAR

STARTCHAR z
ENCODING 122
SWIDTH 600 0
DWIDTH 8 0
BBX 8 14 0 -3
BITMAP
00
00
00
00
00
7E
6C
18
30
76
7E
00
00
00
ENDCHAR

STARTCHAR braceleft
ENCODING 123
SWIDTH 600 0
DWIDTH 8 0
BBX 8 14 0 -3
BITMAP
00
00
0C
18
18
18
18
30
18
18
18
18
0C
00
ENDCHAR

STARTCHAR bar
ENCODING 124
SWIDTH 600 0
DWIDTH 8 0
BBX 8 14 0 -3
BITMAP
00
00
00
18
18
18
18
18
18
18
18
18
18
00
ENDCHAR

STARTCHAR braceright
ENCODING 125
SWIDTH 600 0
DWIDTH 8 0
BBX 8 14 0 -3
BITMAP
00
00
30
18
18
18
18
0C
18
18
18
18
30
00
ENDCHAR

STARTCHAR asciitilde
ENCODING 126
SWIDTH 600 0
DWIDTH 8 0
BBX 8 14 0 -3
BITMAP
00
00
00
00
00
00
32
7E
4C
00
00
00
00
00
ENDCHAR

STARTCHAR exclamdown
ENCODING 161
SWIDTH 600 0
DWIDTH 8 0
BBX 8 14 0 -3
BITMAP
00
00
00
00
00
18
18
00
18
18
18
18
18
18
ENDCHAR

STARTCHAR cent
ENCODING 162
SWIDTH 600 0
DWIDTH 8 0
BBX 8 14 0 -3
BITMAP
00
00
00
18
18
3C
66
60
66
3C
18
18
00
00
ENDCHAR

STARTCHAR sterling
ENCODING 163
SWIDTH 600 0
DWIDTH 8 0
BBX 8 14 0 -3
BITMAP
00
00
00
1E
36
30
7C
30
30
66
7C
00
00
00
ENDCHAR

STARTCHAR currency
ENCODING 164
SWIDTH 600 0
DWIDTH 8 0
BBX 8 14 0 -3
BITMAP
00
00
00
00
66
3C
24
24
3C
66
00
00
00
00
ENDCHAR

STARTCHAR yen
ENCODING 165
SWIDTH 600 0
DWIDTH 8 0
BBX 8 14 0 -3
BITMAP
00
00
00
FF
66
34
7E
18
7E
18
3C
00
00
00
ENDCHAR

STARTCHAR brokenbar
ENCODING 166
SWIDTH 600 0
DWIDTH 8 0
BBX 8 14 0 -3
BITMAP
00
00
00
18
18
18
18
00
00
18
18
18
18
00
ENDCHAR

STARTCHAR section
ENCODING 167
SWIDTH 600 0
DWIDTH 8 0
BBX 8 14 0 -3
BITMAP
00
00
1E
32
30
5C
46
62
3A
0C
4C
78
00
00
ENDCHAR

STARTCHAR dieresis
ENCODING 168
SWIDTH 600 0
DWIDTH 8 0
BBX 8 14 0 -3
BITMAP
00
00
24
24
00
00
00
00
00
00
00
00
00
00
ENDCHAR

STARTCHAR copyright
ENCODING 169
SWIDTH 600 0
DWIDTH 8 0
BBX 8 14 0 -3
BITMAP
00
00
00
38
44
9A
A2
A2
9A
44
38
00
00
00
ENDCHAR

STARTCHAR ordfeminine
ENCODING 170
SWIDTH 600 0
DWIDTH 8 0
BBX 8 14 0 -3
BITMAP
00
00
70
10
70
58
00
78
00
00
00
00
00
00
ENDCHAR

STARTCHAR guillemotleft
ENCODING 171
SWIDTH 600 0
DWIDTH 8 0
BBX 8 14 0 -3
BITMAP
00
00
00
00
00
00
36
6C
D8
6C
36
00
00
00
ENDCHAR

STARTCHAR logicalnot
ENCODING 172
SWIDTH 600 0
DWIDTH 8 0
BBX 8 14 0 -3
BITMAP
00
00
00
00
00
00
7C
04
04
00
00
00
00
00
ENDCHAR

STARTCHAR hyphen
ENCODING 173
SWIDTH 600 0
DWIDTH 8 0
BBX 8 14 0 -3
BITMAP
00
00
00
00
00
00
00
7C
00
00
00
00
00
00
ENDCHAR

STARTCHAR registered
ENCODING 174
SWIDTH 600 0
DWIDTH 8 0
BBX 8 14 0 -3
BITMAP
00
00
00
38
44
B2
AA
B2
AA
44
38
00
00
00
ENDCHAR

STARTCHAR macron
ENCODING 175
SWIDTH 600 0
DWIDTH 8 0
BBX 8 14 0 -3
BITMAP
00
00
00
7C
00
00
00
00
00
00
00
00
00
00
ENDCHAR

STARTCHAR degree
ENCODING 176
SWIDTH 600 0
DWIDTH 8 0
BBX 8 14 0 -3
BITMAP
00
00
00
18
24
24
18
00
00
00
00
00
00
00
ENDCHAR

STARTCHAR plusminus
ENCODING 177
SWIDTH 600 0
DWIDTH 8 0
BBX 8 14 0 -3
BITMAP
00
00
00
00
00
18
7E
18
00
7E
00
00
00
00
ENDCHAR

STARTCHAR twosuperior
ENCODING 178
SWIDTH 600 0
DWIDTH 8 0
BBX 8 14 0 -3
BITMAP
00
00
00
38
0C
18
30
3C
00
00
00
00
00
00
ENDCHAR

STARTCHAR threesuperior
ENCODING 179
SWIDTH 600 0
DWIDTH 8 0
BBX 8 14 0 -3
BITMAP
00
00
00
38
0C
38
0C
38
00
00
00
00
00
00
ENDCHAR

STARTCHAR acute
ENCODING 180
SWIDTH 600 0
DWIDTH 8 0
BBX 8 14 0 -3
BITMAP
00
00
0C
18
00
00
00
00
00
00
00
00
00
00
ENDCHAR

STARTCHAR mu
ENCODING 181
SWIDTH 600 0
DWIDTH 8 0
BBX 8 14 0 -3
BITMAP
00
00
00
00
00
EE
66
66
66
66
7B
60
60
60
ENDCHAR

STARTCHAR paragraph
ENCODING 182
SWIDTH 600 0
DWIDTH 8 0
BBX 8 14 0 -3
BITMAP
00
00
3E
74
94
94
74
34
14
14
14
3E
00
00
ENDCHAR

STARTCHAR periodcentered
ENCODING 183
SWIDTH 600 0
DWIDTH 8 0
BBX 8 14 0 -3
BITMAP
00
00
00
00
00
00
18
18
00
00
00
00
00
00
ENDCHAR

STARTCHAR cedilla
ENCODING 184
SWIDTH 600 0
DWIDTH 8 0
BBX 8 14 0 -3
BITMAP
00
00
00
00
00
00
00
00
00
00
00
18
4C
38
ENDCHAR

STARTCHAR onesuperior
ENCODING 185
SWIDTH 600 0
DWIDTH 8 0
BBX 8 14 0 -3
BITMAP
00
00
00
18
38
18
18
3C
00
00
00
00
00
00
ENDCHAR

STARTCHAR ordmasculine
ENCODING 186
SWIDTH 600 0
DWIDTH 8 0
BBX 8 14 0 -3
BITMAP
00
00
30
48
48
30
00
78
00
00
00
00
00
00
ENDCHAR

STARTCHAR guillemotright
ENCODING 187
SWIDTH 600 0
DWIDTH 8 0
BBX 8 14 0 -3
BITMAP
00
00
00
00
00
00
D8
6C
36
6C
D8
00
00
00
ENDCHAR

STARTCHAR onequarter
ENCODING 188
SWIDTH 600 0
DWIDTH 8 0
BBX 8 14 0 -3
BITMAP
00
00
60
E1
62
64
F8
12
26
4A
9F
06
00
00
ENDCHAR

STARTCHAR onehalf
ENCODING 189
SWIDTH 600 0
DWIDTH 8 0
BBX 8 14 0 -3
BITMAP
00
00
60
E1
62
64
F8
16
2B
46
8C
0F
00
00
ENDCHAR

STARTCHAR threequarters
ENCODING 190
SWIDTH 600 0
DWIDTH 8 0
BBX 8 14 0 -3
BITMAP
00
00
E0
31
E2
34
E8
12
26
4A
9F
06
00
00
ENDCHAR

STARTCHAR questiondown
ENCODING 191
SWIDTH 600 0
DWIDTH 8 0
BBX 8 14 0 -3
BITMAP
00
00
00
00
00
18
18
00
18
18
30
66
66
3C
ENDCHAR

STARTCHAR Agrave
ENCODING 192
SWIDTH 600 0
DWIDTH 8 0
BBX 8 14 0 -3
BITMAP
30
18
00
38
18
34
34
3C
66
66
E7
00
00
00
ENDCHAR

STARTCHAR Aacute
ENCODING 193
SWIDTH 600 0
DWIDTH 8 0
BBX 8 14 0 -3
BITMAP
0C
18
00
38
18
34
34
3C
66
66
E7
00
00
00
ENDCHAR

STARTCHAR Acircumflex
ENCODING 194
SWIDTH 600 0
DWIDTH 8 0
BBX 8 14 0 -3
BITMAP
18
34
00
38
18
34
34
3C
66
66
E7
00
00
00
ENDCHAR

STARTCHAR Atilde
ENCODING 195
SWIDTH 600 0
DWIDTH 8 0
BBX 8 14 0 -3
BITMAP
1A
34
00
38
18
34
34
3C
24
66
E7
00
00
00
ENDCHAR

STARTCHAR Adieresis
ENCODING 196
SWIDTH 600 0
DWIDTH 8 0
BBX 8 14 0 -3
BITMAP
00
66
00
38
18
34
34
3C
66
66
E7
00
00
00
ENDCHAR

STARTCHAR Aring
ENCODING 197
SWIDTH 600 0
DWIDTH 8 0
BBX 8 14 0 -3
BITMAP
18
34
18
18
18
34
34
3C
66
66
E7
00
00
00
ENDCHAR

STARTCHAR AE
ENCODING 198
SWIDTH 600 0
DWIDTH 8 0
BBX 8 14 0 -3
BITMAP
00
00
00
1E
38
28
6E
78
D8
D8
DE
00
00
00
ENDCHAR

STARTCHAR Ccedilla
ENCODING 199
SWIDTH 600 0
DWIDTH 8 0
BBX 8 14 0 -3
BITMAP
00
00
00
3C
66
66
60
60
66
66
3C
18
4C
38
ENDCHAR

STARTCHAR Egrave
ENCODING 200
SWIDTH 600 0
DWIDTH 8 0
BBX 8 14 0 -3
BITMAP
30
18
00
7E
32
30
3C
34
32
32
7E
00
00
00
ENDCHAR

STARTCHAR Eacute
ENCODING 201
SWIDTH 600 0
DWIDTH 8 0
BBX 8 14 0 -3
BITMAP
0C
18
00
7E
32
30
3C
34
32
32
7E
00
00
00
ENDCHAR

STARTCHAR Ecircumflex
ENCODING 202
SWIDTH 600 0
DWIDTH 8 0
BBX 8 14 0 -3
BITMAP
18
34
00
7E
32
30
3C
34
32
32
7E
00
00
00
ENDCHAR

STARTCHAR Edieresis
ENCODING 203
SWIDTH 600 0
DWIDTH 8 0
BBX 8 14 0 -3
BITMAP
00
66
00
7E
32
30
3C
34
32
32
7E
00
00
00
ENDCHAR

STARTCHAR Igrave
ENCODING 204
SWIDTH 600 0
DWIDTH 8 0
BBX 8 14 0 -3
BITMAP
30
18
00
7E
18
18
18
18
18
18
7E
00
00
00
ENDCHAR

STARTCHAR Iacute
ENCODING 205
SWIDTH 600 0
DWIDTH 8 0
BBX 8 14 0 -3
BITMAP
0C
18
00
7E
18
18
18
18
18
18
7E
00
00
00
ENDCHAR

STARTCHAR Icircumflex
ENCODING 206
SWIDTH 600 0
DWIDTH 8 0
BBX 8 14 0 -3
BITMAP
18
34
00
7E
18
18
18
18
18
18
7E
00
00
00
ENDCHAR

STARTCHAR Idieresis
ENCODING 207
SWIDTH 600 0
DWIDTH 8 0
BBX 8 14 0 -3
BITMAP
00
66
00
7E
18
18
18
18
18
18
7E
00
00
00
ENDCHAR

STARTCHAR Eth
ENCODING 208
SWIDTH 600 0
DWIDTH 8 0
BBX 8 14 0 -3
BITMAP
00
00
00
FC
66
66
F6
66
66
66
FC
00
00
00
ENDCHAR

STARTCHAR Ntilde
ENCODING 209
SWIDTH 600 0
DWIDTH 8 0
BBX 8 14 0 -3
BITMAP
1A
34
00
E7
62
72
5A
5A
4E
46
E6
00
00
00
ENDCHAR

STARTCHAR Ograve
ENCODING 210
SWIDTH 600 0
DWIDTH 8 0
BBX 8 14 0 -3
BITMAP
30
18
00
3C
66
66
66
66
66
66
3C
00
00
00
ENDCHAR

STARTCHAR Oacute
ENCODING 211
SWIDTH 600 0
DWIDTH 8 0
BBX 8 14 0 -3
BITMAP
0C
18
00
3C
66
66
66
66
66
66
3C
00
00
00
ENDCHAR

STARTCHAR Ocircumflex
ENCODING 212
SWIDTH 600 0
DWIDTH 8 0
BBX 8 14 0 -3
BITMAP
18
34
00
3C
66
66
66
66
66
66
3C
00
00
00
ENDCHAR

STARTCHAR Otilde
ENCODING 213
SWIDTH 600 0
DWIDTH 8 0
BBX 8 14 0 -3
BITMAP
1A
34
00
3C
66
66
66
66
66
66
3C
00
00
00
ENDCHAR

STARTCHAR Odieresis
ENCODING 214
SWIDTH 600 0
DWIDTH 8 0
BBX 8 14 0 -3
BITMAP
00
66
00
3C
66
66
66
66
66
66
3C
00
00
00
ENDCHAR

STARTCHAR multiply
ENCODING 215
SWIDTH 600 0
DWIDTH 8 0
BBX 8 14 0 -3
BITMAP
00
00
00
00
00
66
3C
18
3C
66
00
00
00
00
ENDCHAR

STARTCHAR Oslash
ENCODING 216
SWIDTH 600 0
DWIDTH 8 0
BBX 8 14 0 -3
BITMAP
00
00
00
3D
66
66
6E
76
66
66
BC
00
00
00
ENDCHAR

STARTCHAR Ugrave
ENCODING 217
SWIDTH 600 0
DWIDTH 8 0
BBX 8 14 0 -3
BITMAP
30
18
00
F7
66
66
66
66
66
66
3C
00
00
00
ENDCHAR

STARTCHAR Uacute
ENCODING 218
SWIDTH 600 0
DWIDTH 8 0
BBX 8 14 0 -3
BITMAP
0C
18
00
F7
66
66
66
66
66
66
3C
00
00
00
ENDCHAR

STARTCHAR Ucircumflex
ENCODING 219
SWIDTH 600 0
DWIDTH 8 0
BBX 8 14 0 -3
BITMAP
18
34
00
F7
66
66
66
66
66
66
3C
00
00
00
ENDCHAR

STARTCHAR Udieresis
ENCODING 220
SWIDTH 600 0
DWIDTH 8 0
BBX 8 14 0 -3
BITMAP
00
66
00
F7
66
66
66
66
66
66
3C
00
00
00
ENDCHAR

STARTCHAR Yacute
ENCODING 221
SWIDTH 600 0
DWIDTH 8 0
BBX 8 14 0 -3
BITMAP
0C
18
00
E7
66
34
38
18
18
18
3C
00
00
00
ENDCHAR

STARTCHAR Thorn
ENCODING 222
SWIDTH 600 0
DWIDTH 8 0
BBX 8 14 0 -3
BITMAP
00
00
00
F0
60
7C
66
66
7C
60
F0
00
00
00
ENDCHAR

STARTCHAR germandbls
ENCODING 223
SWIDTH 600 0
DWIDTH 8 0
BBX 8 14 0 -3
BITMAP
00
00
38
6C
6C
6C
78
6C
66
76
EC
00
00
00
ENDCHAR

STARTCHAR agrave
ENCODING 224
SWIDTH 600 0
DWIDTH 8 0
BBX 8 14 0 -3
BITMAP
00
00
18
0C
00
3C
06
3E
66
66
3F
00
00
00
ENDCHAR

STARTCHAR aacute
ENCODING 225
SWIDTH 600 0
DWIDTH 8 0
BBX 8 14 0 -3
BITMAP
00
00
0C
18
00
3C
06
3E
66
66
3F
00
00
00
ENDCHAR

STARTCHAR acircumflex
ENCODING 226
SWIDTH 600 0
DWIDTH 8 0
BBX 8 14 0 -3
BITMAP
00
00
18
34
00
3C
06
3E
66
66
3F
00
00
00
ENDCHAR

STARTCHAR atilde
ENCODING 227
SWIDTH 600 0
DWIDTH 8 0
BBX 8 14 0 -3
BITMAP
00
00
1A
34
00
3C
06
3E
66
66
3F
00
00
00
ENDCHAR

STARTCHAR adieresis
ENCODING 228
SWIDTH 600 0
DWIDTH 8 0
BBX 8 14 0 -3
BITMAP
00
00
00
36
00
3C
06
3E
66
66
3F
00
00
00
ENDCHAR

STARTCHAR aring
ENCODING 229
SWIDTH 600 0
DWIDTH 8 0
BBX 8 14 0 -3
BITMAP
00
18
34
18
00
3C
06
3E
66
66
3F
00
00
00
ENDCHAR

STARTCHAR ae
ENCODING 230
SWIDTH 600 0
DWIDTH 8 0
BBX 8 14 0 -3
BITMAP
00
00
00
00
00
6C
1A
7E
D8
DA
6C
00
00
00
ENDCHAR

STARTCHAR ccedilla
ENCODING 231
SWIDTH 600 0
DWIDTH 8 0
BBX 8 14 0 -3
BITMAP
00
00
00
00
00
3E
66
60
60
66
3C
18
4C
38
ENDCHAR

STARTCHAR egrave
ENCODING 232
SWIDTH 600 0
DWIDTH 8 0
BBX 8 14 0 -3
BITMAP
00
00
30
18
00
3C
66
7E
60
66
3C
00
00
00
ENDCHAR

STARTCHAR eacute
ENCODING 233
SWIDTH 600 0
DWIDTH 8 0
BBX 8 14 0 -3
BITMAP
00
00
0C
18
00
3C
66
7E
60
66
3C
00
00
00
ENDCHAR

STARTCHAR ecircumflex
ENCODING 234
SWIDTH 600 0
DWIDTH 8 0
BBX 8 14 0 -3
BITMAP
00
00
18
34
00
3C
66
7E
60
66
3C
00
00
00
ENDCHAR

STARTCHAR edieresis
ENCODING 235
SWIDTH 600 0
DWIDTH 8 0
BBX 8 14 0 -3
BITMAP
00
00
00
36
00
3C
66
7E
60
66
3C
00
00
00
ENDCHAR

STARTCHAR igrave
ENCODING 236
SWIDTH 600 0
DWIDTH 8 0
BBX 8 14 0 -3
BITMAP
00
00
30
18
00
78
18
18
18
18
7E
00
00
00
ENDCHAR

STARTCHAR iacute
ENCODING 237
SWIDTH 600 0
DWIDTH 8 0
BBX 8 14 0 -3
BITMAP
00
00
0C
18
00
78
18
18
18
18
7E
00
00
00
ENDCHAR

STARTCHAR icircumflex
ENCODING 238
SWIDTH 600 0
DWIDTH 8 0
BBX 8 14 0 -3
BITMAP
00
00
18
34
00
78
18
18
18
18
7E
00
00
00
ENDCHAR

STARTCHAR idieresis
ENCODING 239
SWIDTH 600 0
DWIDTH 8 0
BBX 8 14 0 -3
BITMAP
00
00
00
66
00
78
18
18
18
18
7E
00
00
00
ENDCHAR

STARTCHAR eth
ENCODING 240
SWIDTH 600 0
DWIDTH 8 0
BBX 8 14 0 -3
BITMAP
00
00
6C
38
4C
3E
66
66
66
66
3C
00
00
00
ENDCHAR

STARTCHAR ntilde
ENCODING 241
SWIDTH 600 0
DWIDTH 8 0
BBX 8 14 0 -3
BITMAP
00
00
1A
34
00
DC
76
66
66
66
F7
00
00
00
ENDCHAR

STARTCHAR ograve
ENCODING 242
SWIDTH 600 0
DWIDTH 8 0
BBX 8 14 0 -3
BITMAP
00
00
30
18
00
3C
66
66
66
66
3C
00
00
00
ENDCHAR

STARTCHAR oacute
ENCODING 243
SWIDTH 600 0
DWIDTH 8 0
BBX 8 14 0 -3
BITMAP
00
00
18
30
00
3C
66
66
66
66
3C
00
00
00
ENDCHAR

STARTCHAR ocircumflex
ENCODING 244
SWIDTH 600 0
DWIDTH 8 0
BBX 8 14 0 -3
BITMAP
00
00
18
34
00
3C
66
66
66
66
3C
00
00
00
ENDCHAR

STARTCHAR otilde
ENCODING 245
SWIDTH 600 0
DWIDTH 8 0
BBX 8 14 0 -3
BITMAP
00
00
1A
34
00
3C
66
66
66
66
3C
00
00
00
ENDCHAR

STARTCHAR odieresis
ENCODING 246
SWIDTH 600 0
DWIDTH 8 0
BBX 8 14 0 -3
BITMAP
00
00
00
66
00
3C
66
66
66
66
3C
00
00
00
ENDCHAR

STARTCHAR divide
ENCODING 247
SWIDTH 600 0
DWIDTH 8 0
BBX 8 14 0 -3
BITMAP
00
00
00
00
00
18
00
7E
00
18
00
00
00
00
ENDCHAR

STARTCHAR oslash
ENCODING 248
SWIDTH 600 0
DWIDTH 8 0
BBX 8 14 0 -3
BITMAP
00
00
00
00
02
3C
66
6E
76
66
3C
40
00
00
ENDCHAR

STARTCHAR ugrave
ENCODING 249
SWIDTH 600 0
DWIDTH 8 0
BBX 8 14 0 -3
BITMAP
00
00
30
18
00
EE
66
66
66
66
3B
00
00
00
ENDCHAR

STARTCHAR uacute
ENCODING 250
SWIDTH 600 0
DWIDTH 8 0
BBX 8 14 0 -3
BITMAP
00
00
18
30
00
EE
66
66
66
66
3B
00
00
00
ENDCHAR

STARTCHAR ucircumflex
ENCODING 251
SWIDTH 600 0
DWIDTH 8 0
BBX 8 14 0 -3
BITMAP
00
00
18
34
00
EE
66
66
66
66
3B
00
00
00
ENDCHAR

STARTCHAR udieresis
ENCODING 252
SWIDTH 600 0
DWIDTH 8 0
BBX 8 14 0 -3
BITMAP
00
00
00
6C
00
EE
66
66
66
66
3B
00
00
00
ENDCHAR

STARTCHAR yacute
ENCODING 253
SWIDTH 600 0
DWIDTH 8 0
BBX 8 14 0 -3
BITMAP
00
00
0C
18
00
F7
66
64
3C
38
18
30
30
78
ENDCHAR

STARTCHAR thorn
ENCODING 254
SWIDTH 600 0
DWIDTH 8 0
BBX 8 14 0 -3
BITMAP
00
00
00
E0
60
7C
66
66
66
66
7C
60
60
F0
ENDCHAR

STARTCHAR ydieresis
ENCODING 255
SWIDTH 600 0
DWIDTH 8 0
BBX 8 14 0 -3
BITMAP
00
00
00
66
00
F7
66
64
3C
38
18
30
30
78
ENDCHAR
ENDFONT
